<svg width="30" height="26" viewBox="0 0 30 26" fill="none" xmlns="http://www.w3.org/2000/svg">
<path d="M30 19.5C30 21.2926 28.5052 22.75 26.6667 22.75H10.6927C9.80729 22.75 8.95833 22.4098 8.33333 21.8004L0.488125 14.1477C0.175573 13.843 0 13.4316 0 13C0 12.5684 0.175625 12.157 0.488125 11.8523L8.33333 4.20215C8.95833 3.59227 9.80729 3.25 10.6927 3.25H26.6667C28.5052 3.25 30 4.70488 30 6.5V19.5ZM14.1146 10.5676L16.5677 13L14.1146 15.3867C13.6302 15.8641 13.6302 16.6359 14.1146 17.0676C14.6042 17.5855 15.3958 17.5855 15.8385 17.0676L18.3333 14.7215L20.7812 17.0676C21.2708 17.5855 22.0625 17.5855 22.5052 17.0676C23.0365 16.6359 23.0365 15.8641 22.5052 15.3867L20.099 13L22.5052 10.5676C23.0365 10.1359 23.0365 9.36406 22.5052 8.88672C22.0625 8.41445 21.2708 8.41445 20.7812 8.88672L18.3333 11.2785L15.8385 8.88672C15.3958 8.41445 14.6042 8.41445 14.1146 8.88672C13.6302 9.36406 13.6302 10.1359 14.1146 10.5676Z" fill="#E0E0E0"/>
</svg>
