<svg width="21" height="21" viewBox="0 0 21 21" fill="none" xmlns="http://www.w3.org/2000/svg">
<path d="M4.21204 15.6583C4.29537 15.6917 4.37037 15.7083 4.4537 15.7083H13.012C13.3537 15.7083 13.637 15.425 13.637 15.0833C13.637 14.7417 13.3537 14.4583 13.012 14.4583H5.96204L16.562 3.85835C16.8037 3.61668 16.8037 3.21668 16.562 2.97501C16.3204 2.73335 15.9204 2.73335 15.6787 2.97501L5.0787 13.575V6.52501C5.0787 6.18335 4.79537 5.90001 4.4537 5.90001C4.11204 5.90001 3.8287 6.18335 3.8287 6.52501V15.0833C3.8287 15.1667 3.84537 15.2417 3.8787 15.325C3.93704 15.475 4.06204 15.6 4.21204 15.6583Z" fill="white"/>
<path d="M17.3704 18.2083H3.20374C2.86207 18.2083 2.57874 18.4916 2.57874 18.8333C2.57874 19.1749 2.86207 19.4583 3.20374 19.4583H17.3704C17.7121 19.4583 17.9954 19.1749 17.9954 18.8333C17.9954 18.4916 17.7121 18.2083 17.3704 18.2083Z" fill="white"/>
</svg>
