<svg width="28" height="28" viewBox="0 0 28 28" fill="none" xmlns="http://www.w3.org/2000/svg">
<path opacity="0.2" d="M14 28C21.732 28 28 21.732 28 14C28 6.26801 21.732 0 14 0C6.26801 0 0 6.26801 0 14C0 21.732 6.26801 28 14 28Z" fill="#F4B05F"/>
<g clip-path="url(#clip0_263_970)">
<path fill-rule="evenodd" clip-rule="evenodd" d="M10 7C10 6.44772 10.4477 6 11 6H17C17.5523 6 18 6.44772 18 7V8H21C21.5523 8 22 8.44772 22 9V10C22 12.4564 20.2286 14.4991 17.8936 14.9204C17.5537 16.3637 16.432 17.5054 15 17.874V20H17C17.5523 20 18 20.4477 18 21V21C18 21.5523 17.5523 22 17 22H11C10.4477 22 10 21.5523 10 21V21C10 20.4477 10.4477 20 11 20H13V17.874C11.568 17.5054 10.4463 16.3637 10.1064 14.9204C7.77136 14.4991 6 12.4564 6 10V9C6 8.44772 6.44772 8 7 8H10V7ZM18 12.8293V11C18 10.4477 18.4477 10 19 10V10C19.5523 10 20.0163 10.4599 19.8357 10.9818C19.5376 11.8428 18.8585 12.5259 18 12.8293ZM10 11C10 10.4477 9.55228 10 9 10V10C8.44772 10 7.98367 10.4599 8.16435 10.9818C8.46241 11.8428 9.14154 12.5259 10 12.8293V11Z" fill="#F4B05F"/>
</g>
<defs>
<clipPath id="clip0_263_970">
<rect width="16" height="16" fill="white" transform="translate(6 6)"/>
</clipPath>
</defs>
</svg>
