<svg width="21" height="21" viewBox="0 0 21 21" fill="none" xmlns="http://www.w3.org/2000/svg">
<path d="M17.2963 18.2083H3.12964C2.78797 18.2083 2.50464 18.4916 2.50464 18.8333C2.50464 19.175 2.78797 19.4583 3.12964 19.4583H17.2963C17.638 19.4583 17.9213 19.175 17.9213 18.8333C17.9213 18.4916 17.638 18.2083 17.2963 18.2083Z" fill="white"/>
<path d="M4.37964 12.6C4.72131 12.6 5.00464 12.3167 5.00464 11.975V4.92502L15.6046 15.525C15.7296 15.65 15.888 15.7084 16.0463 15.7084C16.2046 15.7084 16.363 15.65 16.488 15.525C16.7296 15.2834 16.7296 14.8834 16.488 14.6417L5.88797 4.04169H12.938C13.2796 4.04169 13.563 3.75835 13.563 3.41669C13.563 3.07502 13.2796 2.79169 12.938 2.79169H4.37964C4.29631 2.79169 4.22131 2.80835 4.13797 2.84169C3.98797 2.90002 3.86297 3.02502 3.80464 3.17502C3.77131 3.25835 3.75464 3.33335 3.75464 3.41669V11.975C3.75464 12.3167 4.03797 12.6 4.37964 12.6Z" fill="white"/>
</svg>
