<svg width="163" height="113" viewBox="0 0 163 113" fill="none" xmlns="http://www.w3.org/2000/svg">
<g filter="url(#filter0_d_201_1166)">
<rect x="4" y="4" width="155" height="105" rx="12" fill="#161414"/>
<path d="M54.4032 89.29V98.8H55.7682V102.82H54.4782V100H47.1132V102.82H45.8232V98.8H46.6482C47.0082 98.18 47.3482 97.485 47.6682 96.715C47.9982 95.945 48.2882 95.14 48.5382 94.3C48.7882 93.45 48.9932 92.6 49.1532 91.75C49.3132 90.9 49.4132 90.08 49.4532 89.29H54.4032ZM50.6382 90.505C50.5982 91.085 50.4982 91.74 50.3382 92.47C50.1882 93.2 49.9932 93.95 49.7532 94.72C49.5232 95.48 49.2632 96.215 48.9732 96.925C48.6932 97.635 48.3932 98.26 48.0732 98.8H53.0682V90.505H50.6382ZM64.6693 95.965C64.6693 96.635 64.5793 97.23 64.3993 97.75C64.2293 98.26 63.9793 98.695 63.6493 99.055C63.3293 99.415 62.9343 99.69 62.4643 99.88C62.0043 100.06 61.4893 100.15 60.9193 100.15C60.3893 100.15 59.8993 100.06 59.4493 99.88C58.9993 99.69 58.6093 99.415 58.2793 99.055C57.9493 98.695 57.6893 98.26 57.4993 97.75C57.3193 97.23 57.2293 96.635 57.2293 95.965C57.2293 95.075 57.3793 94.325 57.6793 93.715C57.9793 93.095 58.4093 92.625 58.9693 92.305C59.5293 91.975 60.1943 91.81 60.9643 91.81C61.6943 91.81 62.3343 91.975 62.8843 92.305C63.4443 92.625 63.8793 93.095 64.1893 93.715C64.5093 94.325 64.6693 95.075 64.6693 95.965ZM58.5943 95.965C58.5943 96.595 58.6743 97.145 58.8343 97.615C59.0043 98.075 59.2643 98.43 59.6143 98.68C59.9643 98.93 60.4093 99.055 60.9493 99.055C61.4893 99.055 61.9343 98.93 62.2843 98.68C62.6343 98.43 62.8893 98.075 63.0493 97.615C63.2193 97.145 63.3043 96.595 63.3043 95.965C63.3043 95.325 63.2193 94.78 63.0493 94.33C62.8793 93.88 62.6193 93.535 62.2693 93.295C61.9293 93.045 61.4843 92.92 60.9343 92.92C60.1143 92.92 59.5193 93.19 59.1493 93.73C58.7793 94.27 58.5943 95.015 58.5943 95.965ZM70.2863 100.15C69.5763 100.15 68.9413 100.005 68.3813 99.715C67.8313 99.425 67.3963 98.975 67.0763 98.365C66.7663 97.755 66.6113 96.975 66.6113 96.025C66.6113 95.035 66.7763 94.23 67.1063 93.61C67.4363 92.99 67.8813 92.535 68.4413 92.245C69.0113 91.955 69.6563 91.81 70.3763 91.81C70.7863 91.81 71.1813 91.855 71.5613 91.945C71.9413 92.025 72.2513 92.125 72.4913 92.245L72.0863 93.34C71.8463 93.25 71.5663 93.165 71.2463 93.085C70.9263 93.005 70.6263 92.965 70.3463 92.965C69.8063 92.965 69.3613 93.08 69.0113 93.31C68.6613 93.54 68.4013 93.88 68.2313 94.33C68.0613 94.78 67.9763 95.34 67.9763 96.01C67.9763 96.65 68.0613 97.195 68.2313 97.645C68.4013 98.095 68.6563 98.435 68.9963 98.665C69.3363 98.895 69.7613 99.01 70.2713 99.01C70.7113 99.01 71.0963 98.965 71.4263 98.875C71.7663 98.785 72.0763 98.675 72.3563 98.545V99.715C72.0863 99.855 71.7863 99.96 71.4563 100.03C71.1363 100.11 70.7463 100.15 70.2863 100.15ZM80.1184 93.07H77.4934V100H76.1884V93.07H73.5934V91.96H80.1184V93.07ZM80.7421 91.96H82.1522L83.8922 96.535C83.9922 96.805 84.0822 97.065 84.1622 97.315C84.2522 97.565 84.3322 97.81 84.4022 98.05C84.4722 98.28 84.5272 98.505 84.5672 98.725H84.6272C84.6872 98.475 84.7822 98.15 84.9122 97.75C85.0422 97.34 85.1772 96.93 85.3172 96.52L86.9522 91.96H88.3772L84.9122 101.11C84.7222 101.61 84.4972 102.045 84.2372 102.415C83.9872 102.795 83.6772 103.085 83.3072 103.285C82.9472 103.495 82.5072 103.6 81.9872 103.6C81.7472 103.6 81.5372 103.585 81.3572 103.555C81.1771 103.535 81.0221 103.51 80.8921 103.48V102.43C81.0021 102.45 81.1321 102.47 81.2821 102.49C81.4421 102.51 81.6071 102.52 81.7771 102.52C82.0872 102.52 82.3522 102.46 82.5722 102.34C82.8022 102.23 82.9972 102.065 83.1571 101.845C83.3171 101.635 83.4522 101.385 83.5622 101.095L83.9822 100.03L80.7421 91.96ZM96.7436 91.96V100H95.4236V93.085H91.2686V100H89.9486V91.96H96.7436ZM100.929 91.96V95.305H105.294V91.96H106.614V100H105.294V96.415H100.929V100H99.609V91.96H100.929ZM116.45 95.965C116.45 96.635 116.36 97.23 116.18 97.75C116.01 98.26 115.76 98.695 115.43 99.055C115.11 99.415 114.715 99.69 114.245 99.88C113.785 100.06 113.27 100.15 112.7 100.15C112.17 100.15 111.68 100.06 111.23 99.88C110.78 99.69 110.39 99.415 110.06 99.055C109.73 98.695 109.47 98.26 109.28 97.75C109.1 97.23 109.01 96.635 109.01 95.965C109.01 95.075 109.16 94.325 109.46 93.715C109.76 93.095 110.19 92.625 110.75 92.305C111.31 91.975 111.975 91.81 112.745 91.81C113.475 91.81 114.115 91.975 114.665 92.305C115.225 92.625 115.66 93.095 115.97 93.715C116.29 94.325 116.45 95.075 116.45 95.965ZM110.375 95.965C110.375 96.595 110.455 97.145 110.615 97.615C110.785 98.075 111.045 98.43 111.395 98.68C111.745 98.93 112.19 99.055 112.73 99.055C113.27 99.055 113.715 98.93 114.065 98.68C114.415 98.43 114.67 98.075 114.83 97.615C115 97.145 115.085 96.595 115.085 95.965C115.085 95.325 115 94.78 114.83 94.33C114.66 93.88 114.4 93.535 114.05 93.295C113.71 93.045 113.265 92.92 112.715 92.92C111.895 92.92 111.3 93.19 110.93 93.73C110.56 94.27 110.375 95.015 110.375 95.965Z" fill="white"/>
</g>
<g filter="url(#filter1_d_201_1166)">
<rect x="4" y="4" width="155" height="79" rx="12" fill="#F4F7FA"/>
</g>
<defs>
<filter id="filter0_d_201_1166" x="0" y="0" width="163" height="113" filterUnits="userSpaceOnUse" color-interpolation-filters="sRGB">
<feFlood flood-opacity="0" result="BackgroundImageFix"/>
<feColorMatrix in="SourceAlpha" type="matrix" values="0 0 0 0 0 0 0 0 0 0 0 0 0 0 0 0 0 0 127 0" result="hardAlpha"/>
<feOffset/>
<feGaussianBlur stdDeviation="2"/>
<feComposite in2="hardAlpha" operator="out"/>
<feColorMatrix type="matrix" values="0 0 0 0 0 0 0 0 0 0 0 0 0 0 0 0 0 0 0.25 0"/>
<feBlend mode="normal" in2="BackgroundImageFix" result="effect1_dropShadow_201_1166"/>
<feBlend mode="normal" in="SourceGraphic" in2="effect1_dropShadow_201_1166" result="shape"/>
</filter>
<filter id="filter1_d_201_1166" x="0" y="0" width="163" height="87" filterUnits="userSpaceOnUse" color-interpolation-filters="sRGB">
<feFlood flood-opacity="0" result="BackgroundImageFix"/>
<feColorMatrix in="SourceAlpha" type="matrix" values="0 0 0 0 0 0 0 0 0 0 0 0 0 0 0 0 0 0 127 0" result="hardAlpha"/>
<feOffset/>
<feGaussianBlur stdDeviation="2"/>
<feComposite in2="hardAlpha" operator="out"/>
<feColorMatrix type="matrix" values="0 0 0 0 0 0 0 0 0 0 0 0 0 0 0 0 0 0 0.25 0"/>
<feBlend mode="normal" in2="BackgroundImageFix" result="effect1_dropShadow_201_1166"/>
<feBlend mode="normal" in="SourceGraphic" in2="effect1_dropShadow_201_1166" result="shape"/>
</filter>
</defs>
</svg>
