<svg width="163" height="113" viewBox="0 0 163 113" fill="none" xmlns="http://www.w3.org/2000/svg">
<g filter="url(#filter0_d_201_1167)">
<rect opacity="0.25" x="4" y="4" width="155" height="105" rx="12" fill="#161414"/>
<path d="M52.5846 89.29C53.4746 89.29 54.2196 89.375 54.8196 89.545C55.4296 89.715 55.8846 89.995 56.1846 90.385C56.4946 90.775 56.6496 91.295 56.6496 91.945C56.6496 92.365 56.5696 92.74 56.4096 93.07C56.2596 93.39 56.0296 93.66 55.7196 93.88C55.4196 94.09 55.0496 94.235 54.6096 94.315V94.39C55.0596 94.46 55.4646 94.59 55.8246 94.78C56.1946 94.97 56.4846 95.24 56.6946 95.59C56.9046 95.94 57.0096 96.395 57.0096 96.955C57.0096 97.605 56.8596 98.16 56.5596 98.62C56.2596 99.07 55.8296 99.415 55.2696 99.655C54.7196 99.885 54.0596 100 53.2896 100H49.5246V89.29H52.5846ZM52.8546 93.85C53.7746 93.85 54.4046 93.705 54.7446 93.415C55.0846 93.115 55.2546 92.675 55.2546 92.095C55.2546 91.505 55.0446 91.085 54.6246 90.835C54.2146 90.575 53.5546 90.445 52.6446 90.445H50.8746V93.85H52.8546ZM50.8746 94.975V98.86H53.0346C53.9846 98.86 54.6446 98.675 55.0146 98.305C55.3846 97.935 55.5696 97.45 55.5696 96.85C55.5696 96.47 55.4846 96.14 55.3146 95.86C55.1546 95.58 54.8796 95.365 54.4896 95.215C54.1096 95.055 53.5896 94.975 52.9296 94.975H50.8746ZM68.3373 91.96H69.7773L66.3423 95.83L70.0623 100H68.5323L64.9023 95.92V100H63.5823V91.96H64.9023V95.86L68.3373 91.96ZM75.6468 91.81C76.6368 91.81 77.4318 92.155 78.0318 92.845C78.6418 93.535 78.9468 94.575 78.9468 95.965C78.9468 96.875 78.8068 97.645 78.5268 98.275C78.2568 98.895 77.8718 99.365 77.3718 99.685C76.8818 99.995 76.3018 100.15 75.6318 100.15C75.2218 100.15 74.8568 100.095 74.5368 99.985C74.2168 99.875 73.9418 99.735 73.7118 99.565C73.4918 99.385 73.3018 99.19 73.1418 98.98H73.0518C73.0718 99.15 73.0918 99.365 73.1118 99.625C73.1318 99.885 73.1418 100.11 73.1418 100.3V103.6H71.8218V91.96H72.9018L73.0818 93.055H73.1418C73.3018 92.825 73.4918 92.615 73.7118 92.425C73.9418 92.235 74.2118 92.085 74.5218 91.975C74.8418 91.865 75.2168 91.81 75.6468 91.81ZM75.4068 92.92C74.8668 92.92 74.4318 93.025 74.1018 93.235C73.7718 93.435 73.5318 93.74 73.3818 94.15C73.2318 94.56 73.1518 95.08 73.1418 95.71V95.965C73.1418 96.625 73.2118 97.185 73.3518 97.645C73.4918 98.105 73.7268 98.455 74.0568 98.695C74.3968 98.935 74.8568 99.055 75.4368 99.055C75.9268 99.055 76.3268 98.92 76.6368 98.65C76.9568 98.38 77.1918 98.015 77.3418 97.555C77.5018 97.085 77.5818 96.55 77.5818 95.95C77.5818 95.03 77.4018 94.295 77.0418 93.745C76.6918 93.195 76.1468 92.92 75.4068 92.92ZM84.4553 91.81C85.1453 91.81 85.7353 91.96 86.2253 92.26C86.7253 92.56 87.1053 92.985 87.3653 93.535C87.6353 94.075 87.7703 94.71 87.7703 95.44V96.235H82.2653C82.2853 97.145 82.5153 97.84 82.9553 98.32C83.4053 98.79 84.0303 99.025 84.8303 99.025C85.3403 99.025 85.7903 98.98 86.1803 98.89C86.5803 98.79 86.9903 98.65 87.4103 98.47V99.625C87.0003 99.805 86.5953 99.935 86.1953 100.015C85.7953 100.105 85.3203 100.15 84.7703 100.15C84.0103 100.15 83.3353 99.995 82.7453 99.685C82.1653 99.375 81.7103 98.915 81.3803 98.305C81.0603 97.685 80.9003 96.93 80.9003 96.04C80.9003 95.16 81.0453 94.405 81.3353 93.775C81.6353 93.145 82.0503 92.66 82.5803 92.32C83.1203 91.98 83.7453 91.81 84.4553 91.81ZM84.4403 92.89C83.8103 92.89 83.3103 93.095 82.9403 93.505C82.5803 93.905 82.3653 94.465 82.2953 95.185H86.3903C86.3903 94.725 86.3203 94.325 86.1803 93.985C86.0403 93.645 85.8253 93.38 85.5353 93.19C85.2553 92.99 84.8903 92.89 84.4403 92.89ZM96.0871 91.96V98.89H97.2571V102.79H95.9821V100H90.3871V102.79H89.1271V98.89H89.7721C90.2321 98.25 90.6121 97.555 90.9121 96.805C91.2221 96.045 91.4521 95.255 91.6021 94.435C91.7621 93.605 91.8471 92.78 91.8571 91.96H96.0871ZM93.0271 92.995C92.9871 93.675 92.8821 94.38 92.7121 95.11C92.5421 95.83 92.3221 96.52 92.0521 97.18C91.7921 97.84 91.4871 98.41 91.1371 98.89H94.8121V92.995H93.0271ZM100.378 96.865C100.378 96.955 100.373 97.085 100.363 97.255C100.363 97.415 100.358 97.59 100.348 97.78C100.338 97.96 100.328 98.135 100.318 98.305C100.308 98.465 100.298 98.595 100.288 98.695L104.593 91.96H106.213V100H104.983V95.26C104.983 95.1 104.983 94.89 104.983 94.63C104.993 94.37 105.003 94.115 105.013 93.865C105.023 93.605 105.033 93.41 105.043 93.28L100.768 100H99.1329V91.96H100.378V96.865ZM114.622 93.07H111.997V100H110.692V93.07H108.097V91.96H114.622V93.07Z" fill="#403E3E"/>
</g>
<g filter="url(#filter1_d_201_1167)">
<rect x="4" y="4" width="155" height="79" rx="12" fill="#F4F7FA"/>
</g>
<defs>
<filter id="filter0_d_201_1167" x="0" y="0" width="163" height="113" filterUnits="userSpaceOnUse" color-interpolation-filters="sRGB">
<feFlood flood-opacity="0" result="BackgroundImageFix"/>
<feColorMatrix in="SourceAlpha" type="matrix" values="0 0 0 0 0 0 0 0 0 0 0 0 0 0 0 0 0 0 127 0" result="hardAlpha"/>
<feOffset/>
<feGaussianBlur stdDeviation="2"/>
<feComposite in2="hardAlpha" operator="out"/>
<feColorMatrix type="matrix" values="0 0 0 0 0 0 0 0 0 0 0 0 0 0 0 0 0 0 0.25 0"/>
<feBlend mode="normal" in2="BackgroundImageFix" result="effect1_dropShadow_201_1167"/>
<feBlend mode="normal" in="SourceGraphic" in2="effect1_dropShadow_201_1167" result="shape"/>
</filter>
<filter id="filter1_d_201_1167" x="0" y="0" width="163" height="87" filterUnits="userSpaceOnUse" color-interpolation-filters="sRGB">
<feFlood flood-opacity="0" result="BackgroundImageFix"/>
<feColorMatrix in="SourceAlpha" type="matrix" values="0 0 0 0 0 0 0 0 0 0 0 0 0 0 0 0 0 0 127 0" result="hardAlpha"/>
<feOffset/>
<feGaussianBlur stdDeviation="2"/>
<feComposite in2="hardAlpha" operator="out"/>
<feColorMatrix type="matrix" values="0 0 0 0 0 0 0 0 0 0 0 0 0 0 0 0 0 0 0.25 0"/>
<feBlend mode="normal" in2="BackgroundImageFix" result="effect1_dropShadow_201_1167"/>
<feBlend mode="normal" in="SourceGraphic" in2="effect1_dropShadow_201_1167" result="shape"/>
</filter>
</defs>
</svg>
