<svg width="163" height="113" viewBox="0 0 163 113" fill="none" xmlns="http://www.w3.org/2000/svg">
<g filter="url(#filter0_d_229_1338)">
<rect x="4.5" y="4.5" width="154" height="104" rx="11.5" fill="#B15F5F" stroke="#2D2D2D"/>
<path d="M58.3677 90.432C59.0797 90.432 59.6757 90.5 60.1557 90.636C60.6437 90.772 61.0077 90.996 61.2477 91.308C61.4957 91.62 61.6197 92.036 61.6197 92.556C61.6197 92.892 61.5557 93.192 61.4277 93.456C61.3077 93.712 61.1237 93.928 60.8757 94.104C60.6357 94.272 60.3397 94.388 59.9877 94.452V94.512C60.3477 94.568 60.6717 94.672 60.9597 94.824C61.2557 94.976 61.4877 95.192 61.6557 95.472C61.8237 95.752 61.9077 96.116 61.9077 96.564C61.9077 97.084 61.7877 97.528 61.5477 97.896C61.3077 98.256 60.9637 98.532 60.5157 98.724C60.0757 98.908 59.5477 99 58.9317 99H55.9197V90.432H58.3677ZM58.5837 94.08C59.3197 94.08 59.8237 93.964 60.0957 93.732C60.3677 93.492 60.5037 93.14 60.5037 92.676C60.5037 92.204 60.3357 91.868 59.9997 91.668C59.6717 91.46 59.1437 91.356 58.4157 91.356H56.9997V94.08H58.5837ZM56.9997 94.98V98.088H58.7277C59.4877 98.088 60.0157 97.94 60.3117 97.644C60.6077 97.348 60.7557 96.96 60.7557 96.48C60.7557 96.176 60.6877 95.912 60.5517 95.688C60.4237 95.464 60.2037 95.292 59.8917 95.172C59.5877 95.044 59.1717 94.98 58.6437 94.98H56.9997ZM70.9699 92.568H72.1219L69.3739 95.664L72.3499 99H71.1259L68.2219 95.736V99H67.1659V92.568H68.2219V95.688L70.9699 92.568ZM76.8174 92.448C77.6094 92.448 78.2454 92.724 78.7254 93.276C79.2134 93.828 79.4574 94.66 79.4574 95.772C79.4574 96.5 79.3454 97.116 79.1214 97.62C78.9054 98.116 78.5974 98.492 78.1974 98.748C77.8054 98.996 77.3414 99.12 76.8054 99.12C76.4774 99.12 76.1854 99.076 75.9294 98.988C75.6734 98.9 75.4534 98.788 75.2694 98.652C75.0934 98.508 74.9414 98.352 74.8134 98.184H74.7414C74.7574 98.32 74.7734 98.492 74.7894 98.7C74.8054 98.908 74.8134 99.088 74.8134 99.24V101.88H73.7574V92.568H74.6214L74.7654 93.444H74.8134C74.9414 93.26 75.0934 93.092 75.2694 92.94C75.4534 92.788 75.6694 92.668 75.9174 92.58C76.1734 92.492 76.4734 92.448 76.8174 92.448ZM76.6254 93.336C76.1934 93.336 75.8454 93.42 75.5814 93.588C75.3174 93.748 75.1254 93.992 75.0054 94.32C74.8854 94.648 74.8214 95.064 74.8134 95.568V95.772C74.8134 96.3 74.8694 96.748 74.9814 97.116C75.0934 97.484 75.2814 97.764 75.5454 97.956C75.8174 98.148 76.1854 98.244 76.6494 98.244C77.0414 98.244 77.3614 98.136 77.6094 97.92C77.8654 97.704 78.0534 97.412 78.1734 97.044C78.3014 96.668 78.3654 96.24 78.3654 95.76C78.3654 95.024 78.2214 94.436 77.9334 93.996C77.6534 93.556 77.2174 93.336 76.6254 93.336ZM83.8642 92.448C84.4162 92.448 84.8882 92.568 85.2802 92.808C85.6802 93.048 85.9842 93.388 86.1922 93.828C86.4082 94.26 86.5162 94.768 86.5162 95.352V95.988H82.1122C82.1282 96.716 82.3122 97.272 82.6642 97.656C83.0242 98.032 83.5242 98.22 84.1642 98.22C84.5722 98.22 84.9322 98.184 85.2442 98.112C85.5642 98.032 85.8922 97.92 86.2282 97.776V98.7C85.9002 98.844 85.5762 98.948 85.2562 99.012C84.9362 99.084 84.5562 99.12 84.1162 99.12C83.5082 99.12 82.9682 98.996 82.4962 98.748C82.0322 98.5 81.6682 98.132 81.4042 97.644C81.1482 97.148 81.0202 96.544 81.0202 95.832C81.0202 95.128 81.1362 94.524 81.3682 94.02C81.6082 93.516 81.9402 93.128 82.3642 92.856C82.7962 92.584 83.2962 92.448 83.8642 92.448ZM83.8522 93.312C83.3482 93.312 82.9482 93.476 82.6522 93.804C82.3642 94.124 82.1922 94.572 82.1362 95.148H85.4122C85.4122 94.78 85.3562 94.46 85.2442 94.188C85.1322 93.916 84.9602 93.704 84.7282 93.552C84.5042 93.392 84.2122 93.312 83.8522 93.312ZM93.1697 92.568V98.112H94.1057V101.232H93.0857V99H88.6097V101.232H87.6017V98.112H88.1177C88.4857 97.6 88.7897 97.044 89.0297 96.444C89.2777 95.836 89.4617 95.204 89.5817 94.548C89.7097 93.884 89.7777 93.224 89.7857 92.568H93.1697ZM90.7217 93.396C90.6897 93.94 90.6057 94.504 90.4697 95.088C90.3337 95.664 90.1577 96.216 89.9417 96.744C89.7337 97.272 89.4897 97.728 89.2097 98.112H92.1497V93.396H90.7217ZM96.6023 96.492C96.6023 96.564 96.5983 96.668 96.5903 96.804C96.5903 96.932 96.5863 97.072 96.5783 97.224C96.5703 97.368 96.5623 97.508 96.5543 97.644C96.5463 97.772 96.5383 97.876 96.5303 97.956L99.9743 92.568H101.27V99H100.286V95.208C100.286 95.08 100.286 94.912 100.286 94.704C100.294 94.496 100.302 94.292 100.31 94.092C100.318 93.884 100.326 93.728 100.334 93.624L96.9143 99H95.6063V92.568H96.6023V96.492ZM107.997 93.456H105.897V99H104.853V93.456H102.777V92.568H107.997V93.456Z" fill="#131313"/>
</g>
<g filter="url(#filter1_d_229_1338)">
<rect x="4" y="4" width="155" height="79" rx="12" fill="#2D2D2D"/>
</g>
<defs>
<filter id="filter0_d_229_1338" x="0" y="0" width="163" height="113" filterUnits="userSpaceOnUse" color-interpolation-filters="sRGB">
<feFlood flood-opacity="0" result="BackgroundImageFix"/>
<feColorMatrix in="SourceAlpha" type="matrix" values="0 0 0 0 0 0 0 0 0 0 0 0 0 0 0 0 0 0 127 0" result="hardAlpha"/>
<feOffset/>
<feGaussianBlur stdDeviation="2"/>
<feComposite in2="hardAlpha" operator="out"/>
<feColorMatrix type="matrix" values="0 0 0 0 0 0 0 0 0 0 0 0 0 0 0 0 0 0 0.25 0"/>
<feBlend mode="normal" in2="BackgroundImageFix" result="effect1_dropShadow_229_1338"/>
<feBlend mode="normal" in="SourceGraphic" in2="effect1_dropShadow_229_1338" result="shape"/>
</filter>
<filter id="filter1_d_229_1338" x="0" y="0" width="163" height="87" filterUnits="userSpaceOnUse" color-interpolation-filters="sRGB">
<feFlood flood-opacity="0" result="BackgroundImageFix"/>
<feColorMatrix in="SourceAlpha" type="matrix" values="0 0 0 0 0 0 0 0 0 0 0 0 0 0 0 0 0 0 127 0" result="hardAlpha"/>
<feOffset/>
<feGaussianBlur stdDeviation="2"/>
<feComposite in2="hardAlpha" operator="out"/>
<feColorMatrix type="matrix" values="0 0 0 0 0 0 0 0 0 0 0 0 0 0 0 0 0 0 0.25 0"/>
<feBlend mode="normal" in2="BackgroundImageFix" result="effect1_dropShadow_229_1338"/>
<feBlend mode="normal" in="SourceGraphic" in2="effect1_dropShadow_229_1338" result="shape"/>
</filter>
</defs>
</svg>
