<svg width="176" height="122" viewBox="0 0 176 122" fill="none" xmlns="http://www.w3.org/2000/svg">
<g filter="url(#filter0_d_229_1329)">
<rect x="4.5" y="4.5" width="167" height="113" rx="11.5" fill="#AAAAAA" stroke="#2D2D2D"/>
<path d="M66.3226 97.4606V105.069H67.4146V108.285H66.3826V106.029H60.4906V108.285H59.4586V105.069H60.1186C60.4066 104.573 60.6786 104.017 60.9346 103.401C61.1986 102.785 61.4306 102.141 61.6306 101.469C61.8306 100.789 61.9946 100.109 62.1226 99.4286C62.2506 98.7486 62.3306 98.0926 62.3626 97.4606H66.3226ZM63.3106 98.4326C63.2786 98.8966 63.1986 99.4206 63.0706 100.005C62.9506 100.589 62.7946 101.189 62.6026 101.805C62.4186 102.413 62.2106 103.001 61.9786 103.569C61.7546 104.137 61.5146 104.637 61.2586 105.069H65.2546V98.4326H63.3106ZM74.5354 102.801C74.5354 103.337 74.4634 103.813 74.3194 104.229C74.1834 104.637 73.9834 104.985 73.7194 105.273C73.4634 105.561 73.1474 105.781 72.7714 105.933C72.4034 106.077 71.9914 106.149 71.5354 106.149C71.1114 106.149 70.7194 106.077 70.3594 105.933C69.9994 105.781 69.6874 105.561 69.4234 105.273C69.1594 104.985 68.9514 104.637 68.7994 104.229C68.6554 103.813 68.5834 103.337 68.5834 102.801C68.5834 102.089 68.7034 101.489 68.9434 101.001C69.1834 100.505 69.5274 100.129 69.9754 99.8726C70.4234 99.6086 70.9554 99.4766 71.5714 99.4766C72.1554 99.4766 72.6674 99.6086 73.1074 99.8726C73.5554 100.129 73.9034 100.505 74.1514 101.001C74.4074 101.489 74.5354 102.089 74.5354 102.801ZM69.6754 102.801C69.6754 103.305 69.7394 103.745 69.8674 104.121C70.0034 104.489 70.2114 104.773 70.4914 104.973C70.7714 105.173 71.1274 105.273 71.5594 105.273C71.9914 105.273 72.3474 105.173 72.6274 104.973C72.9074 104.773 73.1114 104.489 73.2394 104.121C73.3754 103.745 73.4434 103.305 73.4434 102.801C73.4434 102.289 73.3754 101.853 73.2394 101.493C73.1034 101.133 72.8954 100.857 72.6154 100.665C72.3434 100.465 71.9874 100.365 71.5474 100.365C70.8914 100.365 70.4154 100.581 70.1194 101.013C69.8234 101.445 69.6754 102.041 69.6754 102.801ZM79.0291 106.149C78.4611 106.149 77.9531 106.033 77.5051 105.801C77.0651 105.569 76.7171 105.209 76.4611 104.721C76.2131 104.233 76.0891 103.609 76.0891 102.849C76.0891 102.057 76.2211 101.413 76.4851 100.917C76.7491 100.421 77.1051 100.057 77.5531 99.8246C78.0091 99.5926 78.5251 99.4766 79.1011 99.4766C79.4291 99.4766 79.7451 99.5126 80.0491 99.5846C80.3531 99.6486 80.6011 99.7286 80.7931 99.8246L80.4691 100.701C80.2771 100.629 80.0531 100.561 79.7971 100.497C79.5411 100.433 79.3011 100.401 79.0771 100.401C78.6451 100.401 78.2891 100.493 78.0091 100.677C77.7291 100.861 77.5211 101.133 77.3851 101.493C77.2491 101.853 77.1811 102.301 77.1811 102.837C77.1811 103.349 77.2491 103.785 77.3851 104.145C77.5211 104.505 77.7251 104.777 77.9971 104.961C78.2691 105.145 78.6091 105.237 79.0171 105.237C79.3691 105.237 79.6771 105.201 79.9411 105.129C80.2131 105.057 80.4611 104.969 80.6851 104.865V105.801C80.4691 105.913 80.2291 105.997 79.9651 106.053C79.7091 106.117 79.3971 106.149 79.0291 106.149ZM86.8947 100.485H84.7947V106.029H83.7507V100.485H81.6747V99.5966H86.8947V100.485ZM87.3937 99.5966H88.5217L89.9137 103.257C89.9937 103.473 90.0657 103.681 90.1297 103.881C90.2017 104.081 90.2657 104.277 90.3217 104.469C90.3777 104.653 90.4217 104.833 90.4537 105.009H90.5017C90.5497 104.809 90.6257 104.549 90.7297 104.229C90.8337 103.901 90.9417 103.573 91.0537 103.245L92.3617 99.5966H93.5017L90.7297 106.917C90.5777 107.317 90.3977 107.665 90.1897 107.961C89.9897 108.265 89.7417 108.497 89.4457 108.657C89.1577 108.825 88.8057 108.909 88.3897 108.909C88.1977 108.909 88.0297 108.897 87.8857 108.873C87.7417 108.857 87.6177 108.837 87.5137 108.813V107.973C87.6017 107.989 87.7057 108.005 87.8257 108.021C87.9537 108.037 88.0857 108.045 88.2217 108.045C88.4697 108.045 88.6817 107.997 88.8577 107.901C89.0417 107.813 89.1977 107.681 89.3257 107.505C89.4537 107.337 89.5617 107.137 89.6497 106.905L89.9857 106.053L87.3937 99.5966ZM100.195 99.5966V106.029H99.1389V100.497H95.8149V106.029H94.7589V99.5966H100.195ZM103.543 99.5966V102.273H107.035V99.5966H108.091V106.029H107.035V103.161H103.543V106.029H102.487V99.5966H103.543ZM115.96 102.801C115.96 103.337 115.888 103.813 115.744 104.229C115.608 104.637 115.408 104.985 115.144 105.273C114.888 105.561 114.572 105.781 114.196 105.933C113.828 106.077 113.416 106.149 112.96 106.149C112.536 106.149 112.144 106.077 111.784 105.933C111.424 105.781 111.112 105.561 110.848 105.273C110.584 104.985 110.376 104.637 110.224 104.229C110.08 103.813 110.008 103.337 110.008 102.801C110.008 102.089 110.128 101.489 110.368 101.001C110.608 100.505 110.952 100.129 111.4 99.8726C111.848 99.6086 112.38 99.4766 112.996 99.4766C113.58 99.4766 114.092 99.6086 114.532 99.8726C114.98 100.129 115.328 100.505 115.576 101.001C115.832 101.489 115.96 102.089 115.96 102.801ZM111.1 102.801C111.1 103.305 111.164 103.745 111.292 104.121C111.428 104.489 111.636 104.773 111.916 104.973C112.196 105.173 112.552 105.273 112.984 105.273C113.416 105.273 113.772 105.173 114.052 104.973C114.332 104.773 114.536 104.489 114.664 104.121C114.8 103.745 114.868 103.305 114.868 102.801C114.868 102.289 114.8 101.853 114.664 101.493C114.528 101.133 114.32 100.857 114.04 100.665C113.768 100.465 113.412 100.365 112.972 100.365C112.316 100.365 111.84 100.581 111.544 101.013C111.248 101.445 111.1 102.041 111.1 102.801Z" fill="#131313"/>
</g>
<g filter="url(#filter1_d_229_1329)">
<rect x="4" y="4" width="168" height="85.7714" rx="12" fill="#2D2D2D"/>
</g>
<defs>
<filter id="filter0_d_229_1329" x="0" y="0" width="176" height="122" filterUnits="userSpaceOnUse" color-interpolation-filters="sRGB">
<feFlood flood-opacity="0" result="BackgroundImageFix"/>
<feColorMatrix in="SourceAlpha" type="matrix" values="0 0 0 0 0 0 0 0 0 0 0 0 0 0 0 0 0 0 127 0" result="hardAlpha"/>
<feOffset/>
<feGaussianBlur stdDeviation="2"/>
<feComposite in2="hardAlpha" operator="out"/>
<feColorMatrix type="matrix" values="0 0 0 0 0 0 0 0 0 0 0 0 0 0 0 0 0 0 0.25 0"/>
<feBlend mode="normal" in2="BackgroundImageFix" result="effect1_dropShadow_229_1329"/>
<feBlend mode="normal" in="SourceGraphic" in2="effect1_dropShadow_229_1329" result="shape"/>
</filter>
<filter id="filter1_d_229_1329" x="0" y="0" width="176" height="93.7714" filterUnits="userSpaceOnUse" color-interpolation-filters="sRGB">
<feFlood flood-opacity="0" result="BackgroundImageFix"/>
<feColorMatrix in="SourceAlpha" type="matrix" values="0 0 0 0 0 0 0 0 0 0 0 0 0 0 0 0 0 0 127 0" result="hardAlpha"/>
<feOffset/>
<feGaussianBlur stdDeviation="2"/>
<feComposite in2="hardAlpha" operator="out"/>
<feColorMatrix type="matrix" values="0 0 0 0 0 0 0 0 0 0 0 0 0 0 0 0 0 0 0.25 0"/>
<feBlend mode="normal" in2="BackgroundImageFix" result="effect1_dropShadow_229_1329"/>
<feBlend mode="normal" in="SourceGraphic" in2="effect1_dropShadow_229_1329" result="shape"/>
</filter>
</defs>
</svg>
