<svg width="163" height="113" viewBox="0 0 163 113" fill="none" xmlns="http://www.w3.org/2000/svg">
<g filter="url(#filter0_d_200_1119)">
<rect x="4" y="4" width="155" height="105" rx="12" fill="#54964A"/>
<path d="M54.974 90.432V98.04H56.066V101.256H55.034V99H49.142V101.256H48.11V98.04H48.77C49.058 97.544 49.33 96.988 49.586 96.372C49.85 95.756 50.082 95.112 50.282 94.44C50.482 93.76 50.646 93.08 50.774 92.4C50.902 91.72 50.982 91.064 51.014 90.432H54.974ZM51.962 91.404C51.93 91.868 51.85 92.392 51.722 92.976C51.602 93.56 51.446 94.16 51.254 94.776C51.07 95.384 50.862 95.972 50.63 96.54C50.406 97.108 50.166 97.608 49.91 98.04H53.906V91.404H51.962ZM63.1869 95.772C63.1869 96.308 63.1149 96.784 62.9709 97.2C62.8349 97.608 62.6349 97.956 62.3709 98.244C62.1149 98.532 61.7989 98.752 61.4229 98.904C61.0549 99.048 60.6429 99.12 60.1869 99.12C59.7629 99.12 59.3709 99.048 59.0109 98.904C58.6509 98.752 58.3389 98.532 58.0749 98.244C57.8109 97.956 57.6029 97.608 57.4509 97.2C57.3069 96.784 57.2349 96.308 57.2349 95.772C57.2349 95.06 57.3549 94.46 57.5949 93.972C57.8349 93.476 58.1789 93.1 58.6269 92.844C59.0749 92.58 59.6069 92.448 60.2229 92.448C60.8069 92.448 61.3189 92.58 61.7589 92.844C62.2069 93.1 62.5549 93.476 62.8029 93.972C63.0589 94.46 63.1869 95.06 63.1869 95.772ZM58.3269 95.772C58.3269 96.276 58.3909 96.716 58.5189 97.092C58.6549 97.46 58.8629 97.744 59.1429 97.944C59.4229 98.144 59.7789 98.244 60.2109 98.244C60.6429 98.244 60.9989 98.144 61.2789 97.944C61.5589 97.744 61.7629 97.46 61.8909 97.092C62.0269 96.716 62.0949 96.276 62.0949 95.772C62.0949 95.26 62.0269 94.824 61.8909 94.464C61.7549 94.104 61.5469 93.828 61.2669 93.636C60.9949 93.436 60.6389 93.336 60.1989 93.336C59.5429 93.336 59.0669 93.552 58.7709 93.984C58.4749 94.416 58.3269 95.012 58.3269 95.772ZM64.7645 95.136C64.7645 94.2 64.8565 93.404 65.0405 92.748C65.2325 92.084 65.5245 91.556 65.9165 91.164C66.3165 90.764 66.8285 90.496 67.4525 90.36C67.9725 90.248 68.4805 90.148 68.9765 90.06C69.4725 89.972 69.9365 89.892 70.3685 89.82L70.5485 90.744C70.3405 90.776 70.1085 90.816 69.8525 90.864C69.5965 90.904 69.3365 90.948 69.0725 90.996C68.8085 91.036 68.5525 91.08 68.3045 91.128C68.0645 91.168 67.8525 91.208 67.6685 91.248C67.4045 91.304 67.1685 91.4 66.9605 91.536C66.7525 91.664 66.5725 91.84 66.4205 92.064C66.2765 92.288 66.1605 92.564 66.0725 92.892C65.9845 93.22 65.9325 93.608 65.9165 94.056H65.9885C66.1005 93.904 66.2525 93.748 66.4445 93.588C66.6445 93.428 66.8805 93.292 67.1525 93.18C67.4325 93.068 67.7485 93.012 68.1005 93.012C68.6605 93.012 69.1245 93.136 69.4925 93.384C69.8685 93.624 70.1485 93.96 70.3325 94.392C70.5245 94.824 70.6205 95.328 70.6205 95.904C70.6205 96.616 70.4965 97.212 70.2485 97.692C70.0005 98.172 69.6565 98.532 69.2165 98.772C68.7765 99.004 68.2645 99.12 67.6805 99.12C67.2405 99.12 66.8405 99.036 66.4805 98.868C66.1205 98.692 65.8125 98.436 65.5565 98.1C65.3005 97.764 65.1045 97.348 64.9685 96.852C64.8325 96.356 64.7645 95.784 64.7645 95.136ZM67.7645 98.244C68.1165 98.244 68.4205 98.172 68.6765 98.028C68.9405 97.884 69.1445 97.648 69.2885 97.32C69.4325 96.992 69.5045 96.556 69.5045 96.012C69.5045 95.356 69.3805 94.84 69.1325 94.464C68.8925 94.08 68.4925 93.888 67.9325 93.888C67.5805 93.888 67.2605 93.968 66.9725 94.128C66.6845 94.28 66.4445 94.456 66.2525 94.656C66.0605 94.856 65.9245 95.024 65.8445 95.16C65.8445 95.552 65.8725 95.932 65.9285 96.3C65.9845 96.668 66.0805 97 66.2165 97.296C66.3605 97.584 66.5565 97.816 66.8045 97.992C67.0605 98.16 67.3805 98.244 67.7645 98.244ZM74.9601 92.46C75.7441 92.46 76.3241 92.632 76.7001 92.976C77.0761 93.32 77.2641 93.868 77.2641 94.62V99H76.4961L76.2921 98.088H76.2441C76.0601 98.32 75.8681 98.516 75.6681 98.676C75.4761 98.828 75.2521 98.94 74.9961 99.012C74.7481 99.084 74.4441 99.12 74.0841 99.12C73.7001 99.12 73.3521 99.052 73.0401 98.916C72.7361 98.78 72.4961 98.572 72.3201 98.292C72.1441 98.004 72.0561 97.644 72.0561 97.212C72.0561 96.572 72.3081 96.08 72.8121 95.736C73.3161 95.384 74.0921 95.192 75.1401 95.16L76.2321 95.124V94.74C76.2321 94.204 76.1161 93.832 75.8841 93.624C75.6521 93.416 75.3241 93.312 74.9001 93.312C74.5641 93.312 74.2441 93.364 73.9401 93.468C73.6361 93.564 73.3521 93.676 73.0881 93.804L72.7641 93.012C73.0441 92.86 73.3761 92.732 73.7601 92.628C74.1441 92.516 74.5441 92.46 74.9601 92.46ZM75.2721 95.892C74.4721 95.924 73.9161 96.052 73.6041 96.276C73.3001 96.5 73.1481 96.816 73.1481 97.224C73.1481 97.584 73.2561 97.848 73.4721 98.016C73.6961 98.184 73.9801 98.268 74.3241 98.268C74.8681 98.268 75.3201 98.12 75.6801 97.824C76.0401 97.52 76.2201 97.056 76.2201 96.432V95.856L75.2721 95.892ZM84.6627 94.188C84.6627 94.588 84.5427 94.9 84.3027 95.124C84.0627 95.348 83.7547 95.5 83.3787 95.58V95.628C83.7787 95.684 84.1267 95.828 84.4227 96.06C84.7187 96.284 84.8667 96.636 84.8667 97.116C84.8667 97.388 84.8147 97.64 84.7107 97.872C84.6147 98.104 84.4627 98.304 84.2547 98.472C84.0467 98.64 83.7787 98.772 83.4507 98.868C83.1227 98.956 82.7267 99 82.2627 99H79.4907V92.568H82.2507C82.7067 92.568 83.1147 92.62 83.4747 92.724C83.8427 92.82 84.1307 92.988 84.3387 93.228C84.5547 93.46 84.6627 93.78 84.6627 94.188ZM83.7747 97.116C83.7747 96.748 83.6347 96.484 83.3547 96.324C83.0747 96.164 82.6627 96.084 82.1187 96.084H80.5467V98.148H82.1427C82.6707 98.148 83.0747 98.072 83.3547 97.92C83.6347 97.76 83.7747 97.492 83.7747 97.116ZM83.5947 94.32C83.5947 94.016 83.4827 93.796 83.2587 93.66C83.0427 93.516 82.6867 93.444 82.1907 93.444H80.5467V95.208H81.9987C82.5187 95.208 82.9147 95.136 83.1867 94.992C83.4587 94.848 83.5947 94.624 83.5947 94.32ZM91.5408 99H90.4728V93.444H88.5768C88.4968 94.46 88.3968 95.328 88.2768 96.048C88.1568 96.76 88.0048 97.34 87.8208 97.788C87.6368 98.236 87.4168 98.564 87.1608 98.772C86.9048 98.98 86.6048 99.084 86.2608 99.084C86.1568 99.084 86.0528 99.076 85.9488 99.06C85.8528 99.052 85.7728 99.032 85.7088 99V98.208C85.7568 98.224 85.8088 98.236 85.8648 98.244C85.9208 98.252 85.9768 98.256 86.0328 98.256C86.2088 98.256 86.3688 98.184 86.5128 98.04C86.6568 97.896 86.7848 97.676 86.8968 97.38C87.0168 97.084 87.1248 96.712 87.2208 96.264C87.3168 95.808 87.4008 95.272 87.4728 94.656C87.5448 94.04 87.6088 93.344 87.6648 92.568H91.5408V99ZM96.3063 92.448C96.8583 92.448 97.3303 92.568 97.7223 92.808C98.1223 93.048 98.4263 93.388 98.6343 93.828C98.8503 94.26 98.9583 94.768 98.9583 95.352V95.988H94.5543C94.5703 96.716 94.7543 97.272 95.1063 97.656C95.4663 98.032 95.9663 98.22 96.6063 98.22C97.0143 98.22 97.3743 98.184 97.6863 98.112C98.0063 98.032 98.3343 97.92 98.6703 97.776V98.7C98.3423 98.844 98.0183 98.948 97.6983 99.012C97.3783 99.084 96.9983 99.12 96.5583 99.12C95.9503 99.12 95.4103 98.996 94.9383 98.748C94.4743 98.5 94.1103 98.132 93.8463 97.644C93.5903 97.148 93.4623 96.544 93.4623 95.832C93.4623 95.128 93.5783 94.524 93.8103 94.02C94.0503 93.516 94.3823 93.128 94.8063 92.856C95.2383 92.584 95.7383 92.448 96.3063 92.448ZM96.2943 93.312C95.7903 93.312 95.3903 93.476 95.0943 93.804C94.8063 94.124 94.6343 94.572 94.5783 95.148H97.8543C97.8543 94.78 97.7983 94.46 97.6863 94.188C97.5743 93.916 97.4023 93.704 97.1703 93.552C96.9463 93.392 96.6543 93.312 96.2943 93.312ZM101.892 92.568V95.244H105.384V92.568H106.44V99H105.384V96.132H101.892V99H100.836V92.568H101.892ZM114.308 95.772C114.308 96.308 114.236 96.784 114.092 97.2C113.956 97.608 113.756 97.956 113.492 98.244C113.236 98.532 112.92 98.752 112.544 98.904C112.176 99.048 111.764 99.12 111.308 99.12C110.884 99.12 110.492 99.048 110.132 98.904C109.772 98.752 109.46 98.532 109.196 98.244C108.932 97.956 108.724 97.608 108.572 97.2C108.428 96.784 108.356 96.308 108.356 95.772C108.356 95.06 108.476 94.46 108.716 93.972C108.956 93.476 109.3 93.1 109.748 92.844C110.196 92.58 110.728 92.448 111.344 92.448C111.928 92.448 112.44 92.58 112.88 92.844C113.328 93.1 113.676 93.476 113.924 93.972C114.18 94.46 114.308 95.06 114.308 95.772ZM109.448 95.772C109.448 96.276 109.512 96.716 109.64 97.092C109.776 97.46 109.984 97.744 110.264 97.944C110.544 98.144 110.9 98.244 111.332 98.244C111.764 98.244 112.12 98.144 112.4 97.944C112.68 97.744 112.884 97.46 113.012 97.092C113.148 96.716 113.216 96.276 113.216 95.772C113.216 95.26 113.148 94.824 113.012 94.464C112.876 94.104 112.668 93.828 112.388 93.636C112.116 93.436 111.76 93.336 111.32 93.336C110.664 93.336 110.188 93.552 109.892 93.984C109.596 94.416 109.448 95.012 109.448 95.772Z" fill="white"/>
</g>
<g filter="url(#filter1_d_200_1119)">
<rect x="4" y="4" width="155" height="79" rx="12" fill="#F4F7FA"/>
</g>
<defs>
<filter id="filter0_d_200_1119" x="0" y="0" width="163" height="113" filterUnits="userSpaceOnUse" color-interpolation-filters="sRGB">
<feFlood flood-opacity="0" result="BackgroundImageFix"/>
<feColorMatrix in="SourceAlpha" type="matrix" values="0 0 0 0 0 0 0 0 0 0 0 0 0 0 0 0 0 0 127 0" result="hardAlpha"/>
<feOffset/>
<feGaussianBlur stdDeviation="2"/>
<feComposite in2="hardAlpha" operator="out"/>
<feColorMatrix type="matrix" values="0 0 0 0 0 0 0 0 0 0 0 0 0 0 0 0 0 0 0.25 0"/>
<feBlend mode="normal" in2="BackgroundImageFix" result="effect1_dropShadow_200_1119"/>
<feBlend mode="normal" in="SourceGraphic" in2="effect1_dropShadow_200_1119" result="shape"/>
</filter>
<filter id="filter1_d_200_1119" x="0" y="0" width="163" height="87" filterUnits="userSpaceOnUse" color-interpolation-filters="sRGB">
<feFlood flood-opacity="0" result="BackgroundImageFix"/>
<feColorMatrix in="SourceAlpha" type="matrix" values="0 0 0 0 0 0 0 0 0 0 0 0 0 0 0 0 0 0 127 0" result="hardAlpha"/>
<feOffset/>
<feGaussianBlur stdDeviation="2"/>
<feComposite in2="hardAlpha" operator="out"/>
<feColorMatrix type="matrix" values="0 0 0 0 0 0 0 0 0 0 0 0 0 0 0 0 0 0 0.25 0"/>
<feBlend mode="normal" in2="BackgroundImageFix" result="effect1_dropShadow_200_1119"/>
<feBlend mode="normal" in="SourceGraphic" in2="effect1_dropShadow_200_1119" result="shape"/>
</filter>
</defs>
</svg>
