<svg width="176" height="122" viewBox="0 0 176 122" fill="none" xmlns="http://www.w3.org/2000/svg">
<g filter="url(#filter0_d_166_1090)">
<rect opacity="0.25" x="4" y="4" width="168" height="114" rx="12" fill="#161414"/>
<path d="M64.8677 98.5463C65.5797 98.5463 66.1757 98.6143 66.6557 98.7503C67.1437 98.8863 67.5077 99.1103 67.7477 99.4223C67.9957 99.7343 68.1197 100.15 68.1197 100.67C68.1197 101.006 68.0557 101.306 67.9277 101.57C67.8077 101.826 67.6237 102.042 67.3757 102.218C67.1357 102.386 66.8397 102.502 66.4877 102.566V102.626C66.8477 102.682 67.1717 102.786 67.4597 102.938C67.7557 103.09 67.9877 103.306 68.1557 103.586C68.3237 103.866 68.4077 104.23 68.4077 104.678C68.4077 105.198 68.2877 105.642 68.0477 106.01C67.8077 106.37 67.4637 106.646 67.0157 106.838C66.5757 107.022 66.0477 107.114 65.4317 107.114H62.4197V98.5463H64.8677ZM65.0837 102.194C65.8197 102.194 66.3237 102.078 66.5957 101.846C66.8677 101.606 67.0037 101.254 67.0037 100.79C67.0037 100.318 66.8357 99.9823 66.4997 99.7823C66.1717 99.5743 65.6437 99.4703 64.9157 99.4703H63.4997V102.194H65.0837ZM63.4997 103.094V106.202H65.2277C65.9877 106.202 66.5157 106.054 66.8117 105.758C67.1077 105.462 67.2557 105.074 67.2557 104.594C67.2557 104.29 67.1877 104.026 67.0517 103.802C66.9237 103.578 66.7037 103.406 66.3917 103.286C66.0877 103.158 65.6717 103.094 65.1437 103.094H63.4997ZM77.4699 100.682H78.6219L75.8739 103.778L78.8499 107.114H77.6259L74.7219 103.85V107.114H73.6659V100.682H74.7219V103.802L77.4699 100.682ZM83.3174 100.562C84.1094 100.562 84.7454 100.838 85.2254 101.39C85.7134 101.942 85.9574 102.774 85.9574 103.886C85.9574 104.614 85.8454 105.23 85.6214 105.734C85.4054 106.23 85.0974 106.606 84.6974 106.862C84.3054 107.11 83.8414 107.234 83.3054 107.234C82.9774 107.234 82.6854 107.19 82.4294 107.102C82.1734 107.014 81.9534 106.902 81.7694 106.766C81.5934 106.622 81.4414 106.466 81.3134 106.298H81.2414C81.2574 106.434 81.2734 106.606 81.2894 106.814C81.3054 107.022 81.3134 107.202 81.3134 107.354V109.994H80.2574V100.682H81.1214L81.2654 101.558H81.3134C81.4414 101.374 81.5934 101.206 81.7694 101.054C81.9534 100.902 82.1694 100.782 82.4174 100.694C82.6734 100.606 82.9734 100.562 83.3174 100.562ZM83.1254 101.45C82.6934 101.45 82.3454 101.534 82.0814 101.702C81.8174 101.862 81.6254 102.106 81.5054 102.434C81.3854 102.762 81.3214 103.178 81.3134 103.682V103.886C81.3134 104.414 81.3694 104.862 81.4814 105.23C81.5934 105.598 81.7814 105.878 82.0454 106.07C82.3174 106.262 82.6854 106.358 83.1494 106.358C83.5414 106.358 83.8614 106.25 84.1094 106.034C84.3654 105.818 84.5534 105.526 84.6734 105.158C84.8014 104.782 84.8654 104.354 84.8654 103.874C84.8654 103.138 84.7214 102.55 84.4334 102.11C84.1534 101.67 83.7174 101.45 83.1254 101.45ZM90.3642 100.562C90.9162 100.562 91.3882 100.682 91.7802 100.922C92.1802 101.162 92.4842 101.502 92.6922 101.942C92.9082 102.374 93.0162 102.882 93.0162 103.466V104.102H88.6122C88.6282 104.83 88.8122 105.386 89.1642 105.77C89.5242 106.146 90.0242 106.334 90.6642 106.334C91.0722 106.334 91.4322 106.298 91.7442 106.226C92.0642 106.146 92.3922 106.034 92.7282 105.89V106.814C92.4002 106.958 92.0762 107.062 91.7562 107.126C91.4362 107.198 91.0562 107.234 90.6162 107.234C90.0082 107.234 89.4682 107.11 88.9962 106.862C88.5322 106.614 88.1682 106.246 87.9042 105.758C87.6482 105.262 87.5202 104.658 87.5202 103.946C87.5202 103.242 87.6362 102.638 87.8682 102.134C88.1082 101.63 88.4402 101.242 88.8642 100.97C89.2962 100.698 89.7962 100.562 90.3642 100.562ZM90.3522 101.426C89.8482 101.426 89.4482 101.59 89.1522 101.918C88.8642 102.238 88.6922 102.686 88.6362 103.262H91.9122C91.9122 102.894 91.8562 102.574 91.7442 102.302C91.6322 102.03 91.4602 101.818 91.2282 101.666C91.0042 101.506 90.7122 101.426 90.3522 101.426ZM99.6697 100.682V106.226H100.606V109.346H99.5857V107.114H95.1097V109.346H94.1017V106.226H94.6177C94.9857 105.714 95.2897 105.158 95.5297 104.558C95.7777 103.95 95.9617 103.318 96.0817 102.662C96.2097 101.998 96.2777 101.338 96.2857 100.682H99.6697ZM97.2217 101.51C97.1897 102.054 97.1057 102.618 96.9697 103.202C96.8337 103.778 96.6577 104.33 96.4417 104.858C96.2337 105.386 95.9897 105.842 95.7097 106.226H98.6497V101.51H97.2217ZM103.102 104.606C103.102 104.678 103.098 104.782 103.09 104.918C103.09 105.046 103.086 105.186 103.078 105.338C103.07 105.482 103.062 105.622 103.054 105.758C103.046 105.886 103.038 105.99 103.03 106.07L106.474 100.682H107.77V107.114H106.786V103.322C106.786 103.194 106.786 103.026 106.786 102.818C106.794 102.61 106.802 102.406 106.81 102.206C106.818 101.998 106.826 101.842 106.834 101.738L103.414 107.114H102.106V100.682H103.102V104.606ZM114.497 101.57H112.397V107.114H111.353V101.57H109.277V100.682H114.497V101.57Z" fill="#403E3E"/>
</g>
<g filter="url(#filter1_d_166_1090)">
<rect x="4" y="4" width="168" height="85.7714" rx="12" fill="#F4F7FA"/>
</g>
<defs>
<filter id="filter0_d_166_1090" x="0" y="0" width="176" height="122" filterUnits="userSpaceOnUse" color-interpolation-filters="sRGB">
<feFlood flood-opacity="0" result="BackgroundImageFix"/>
<feColorMatrix in="SourceAlpha" type="matrix" values="0 0 0 0 0 0 0 0 0 0 0 0 0 0 0 0 0 0 127 0" result="hardAlpha"/>
<feOffset/>
<feGaussianBlur stdDeviation="2"/>
<feComposite in2="hardAlpha" operator="out"/>
<feColorMatrix type="matrix" values="0 0 0 0 0 0 0 0 0 0 0 0 0 0 0 0 0 0 0.25 0"/>
<feBlend mode="normal" in2="BackgroundImageFix" result="effect1_dropShadow_166_1090"/>
<feBlend mode="normal" in="SourceGraphic" in2="effect1_dropShadow_166_1090" result="shape"/>
</filter>
<filter id="filter1_d_166_1090" x="0" y="0" width="176" height="93.7714" filterUnits="userSpaceOnUse" color-interpolation-filters="sRGB">
<feFlood flood-opacity="0" result="BackgroundImageFix"/>
<feColorMatrix in="SourceAlpha" type="matrix" values="0 0 0 0 0 0 0 0 0 0 0 0 0 0 0 0 0 0 127 0" result="hardAlpha"/>
<feOffset/>
<feGaussianBlur stdDeviation="2"/>
<feComposite in2="hardAlpha" operator="out"/>
<feColorMatrix type="matrix" values="0 0 0 0 0 0 0 0 0 0 0 0 0 0 0 0 0 0 0.25 0"/>
<feBlend mode="normal" in2="BackgroundImageFix" result="effect1_dropShadow_166_1090"/>
<feBlend mode="normal" in="SourceGraphic" in2="effect1_dropShadow_166_1090" result="shape"/>
</filter>
</defs>
</svg>
