<svg width="163" height="113" viewBox="0 0 163 113" fill="none" xmlns="http://www.w3.org/2000/svg">
<g filter="url(#filter0_d_223_1320)">
<rect x="4" y="4" width="155" height="105" rx="12" fill="#242424"/>
<path d="M59.8226 90.432V98.04H60.9146V101.256H59.8826V99H53.9906V101.256H52.9586V98.04H53.6186C53.9066 97.544 54.1786 96.988 54.4346 96.372C54.6986 95.756 54.9306 95.112 55.1306 94.44C55.3306 93.76 55.4946 93.08 55.6226 92.4C55.7506 91.72 55.8306 91.064 55.8626 90.432H59.8226ZM56.8106 91.404C56.7786 91.868 56.6986 92.392 56.5706 92.976C56.4506 93.56 56.2946 94.16 56.1026 94.776C55.9186 95.384 55.7106 95.972 55.4786 96.54C55.2546 97.108 55.0146 97.608 54.7586 98.04H58.7546V91.404H56.8106ZM68.0354 95.772C68.0354 96.308 67.9634 96.784 67.8194 97.2C67.6834 97.608 67.4834 97.956 67.2194 98.244C66.9634 98.532 66.6474 98.752 66.2714 98.904C65.9034 99.048 65.4914 99.12 65.0354 99.12C64.6114 99.12 64.2194 99.048 63.8594 98.904C63.4994 98.752 63.1874 98.532 62.9234 98.244C62.6594 97.956 62.4514 97.608 62.2994 97.2C62.1554 96.784 62.0834 96.308 62.0834 95.772C62.0834 95.06 62.2034 94.46 62.4434 93.972C62.6834 93.476 63.0274 93.1 63.4754 92.844C63.9234 92.58 64.4554 92.448 65.0714 92.448C65.6554 92.448 66.1674 92.58 66.6074 92.844C67.0554 93.1 67.4034 93.476 67.6514 93.972C67.9074 94.46 68.0354 95.06 68.0354 95.772ZM63.1754 95.772C63.1754 96.276 63.2394 96.716 63.3674 97.092C63.5034 97.46 63.7114 97.744 63.9914 97.944C64.2714 98.144 64.6274 98.244 65.0594 98.244C65.4914 98.244 65.8474 98.144 66.1274 97.944C66.4074 97.744 66.6114 97.46 66.7394 97.092C66.8754 96.716 66.9434 96.276 66.9434 95.772C66.9434 95.26 66.8754 94.824 66.7394 94.464C66.6034 94.104 66.3954 93.828 66.1154 93.636C65.8434 93.436 65.4874 93.336 65.0474 93.336C64.3914 93.336 63.9154 93.552 63.6194 93.984C63.3234 94.416 63.1754 95.012 63.1754 95.772ZM72.5291 99.12C71.9611 99.12 71.4531 99.004 71.0051 98.772C70.5651 98.54 70.2171 98.18 69.9611 97.692C69.7131 97.204 69.5891 96.58 69.5891 95.82C69.5891 95.028 69.7211 94.384 69.9851 93.888C70.2491 93.392 70.6051 93.028 71.0531 92.796C71.5091 92.564 72.0251 92.448 72.6011 92.448C72.9291 92.448 73.2451 92.484 73.5491 92.556C73.8531 92.62 74.1011 92.7 74.2931 92.796L73.9691 93.672C73.7771 93.6 73.5531 93.532 73.2971 93.468C73.0411 93.404 72.8011 93.372 72.5771 93.372C72.1451 93.372 71.7891 93.464 71.5091 93.648C71.2291 93.832 71.0211 94.104 70.8851 94.464C70.7491 94.824 70.6811 95.272 70.6811 95.808C70.6811 96.32 70.7491 96.756 70.8851 97.116C71.0211 97.476 71.2251 97.748 71.4971 97.932C71.7691 98.116 72.1091 98.208 72.5171 98.208C72.8691 98.208 73.1771 98.172 73.4411 98.1C73.7131 98.028 73.9611 97.94 74.1851 97.836V98.772C73.9691 98.884 73.7291 98.968 73.4651 99.024C73.2091 99.088 72.8971 99.12 72.5291 99.12ZM80.3947 93.456H78.2947V99H77.2507V93.456H75.1747V92.568H80.3947V93.456ZM80.8937 92.568H82.0217L83.4137 96.228C83.4937 96.444 83.5657 96.652 83.6297 96.852C83.7017 97.052 83.7657 97.248 83.8217 97.44C83.8777 97.624 83.9217 97.804 83.9537 97.98H84.0017C84.0497 97.78 84.1257 97.52 84.2297 97.2C84.3337 96.872 84.4417 96.544 84.5537 96.216L85.8617 92.568H87.0017L84.2297 99.888C84.0777 100.288 83.8977 100.636 83.6897 100.932C83.4897 101.236 83.2417 101.468 82.9457 101.628C82.6577 101.796 82.3057 101.88 81.8897 101.88C81.6977 101.88 81.5297 101.868 81.3857 101.844C81.2417 101.828 81.1177 101.808 81.0137 101.784V100.944C81.1017 100.96 81.2057 100.976 81.3257 100.992C81.4537 101.008 81.5857 101.016 81.7217 101.016C81.9697 101.016 82.1817 100.968 82.3577 100.872C82.5417 100.784 82.6977 100.652 82.8257 100.476C82.9537 100.308 83.0617 100.108 83.1497 99.876L83.4857 99.024L80.8937 92.568ZM93.6949 92.568V99H92.6389V93.468H89.3149V99H88.2589V92.568H93.6949ZM97.0432 92.568V95.244H100.535V92.568H101.591V99H100.535V96.132H97.0432V99H95.9872V92.568H97.0432ZM109.46 95.772C109.46 96.308 109.388 96.784 109.244 97.2C109.108 97.608 108.908 97.956 108.644 98.244C108.388 98.532 108.072 98.752 107.696 98.904C107.328 99.048 106.916 99.12 106.46 99.12C106.036 99.12 105.644 99.048 105.284 98.904C104.924 98.752 104.612 98.532 104.348 98.244C104.084 97.956 103.876 97.608 103.724 97.2C103.58 96.784 103.508 96.308 103.508 95.772C103.508 95.06 103.628 94.46 103.868 93.972C104.108 93.476 104.452 93.1 104.9 92.844C105.348 92.58 105.88 92.448 106.496 92.448C107.08 92.448 107.592 92.58 108.032 92.844C108.48 93.1 108.828 93.476 109.076 93.972C109.332 94.46 109.46 95.06 109.46 95.772ZM104.6 95.772C104.6 96.276 104.664 96.716 104.792 97.092C104.928 97.46 105.136 97.744 105.416 97.944C105.696 98.144 106.052 98.244 106.484 98.244C106.916 98.244 107.272 98.144 107.552 97.944C107.832 97.744 108.036 97.46 108.164 97.092C108.3 96.716 108.368 96.276 108.368 95.772C108.368 95.26 108.3 94.824 108.164 94.464C108.028 94.104 107.82 93.828 107.54 93.636C107.268 93.436 106.912 93.336 106.472 93.336C105.816 93.336 105.34 93.552 105.044 93.984C104.748 94.416 104.6 95.012 104.6 95.772Z" fill="white"/>
</g>
<g filter="url(#filter1_d_223_1320)">
<rect x="4" y="4" width="155" height="79" rx="12" fill="#F4F7FA"/>
</g>
<defs>
<filter id="filter0_d_223_1320" x="0" y="0" width="163" height="113" filterUnits="userSpaceOnUse" color-interpolation-filters="sRGB">
<feFlood flood-opacity="0" result="BackgroundImageFix"/>
<feColorMatrix in="SourceAlpha" type="matrix" values="0 0 0 0 0 0 0 0 0 0 0 0 0 0 0 0 0 0 127 0" result="hardAlpha"/>
<feOffset/>
<feGaussianBlur stdDeviation="2"/>
<feComposite in2="hardAlpha" operator="out"/>
<feColorMatrix type="matrix" values="0 0 0 0 0 0 0 0 0 0 0 0 0 0 0 0 0 0 0.25 0"/>
<feBlend mode="normal" in2="BackgroundImageFix" result="effect1_dropShadow_223_1320"/>
<feBlend mode="normal" in="SourceGraphic" in2="effect1_dropShadow_223_1320" result="shape"/>
</filter>
<filter id="filter1_d_223_1320" x="0" y="0" width="163" height="87" filterUnits="userSpaceOnUse" color-interpolation-filters="sRGB">
<feFlood flood-opacity="0" result="BackgroundImageFix"/>
<feColorMatrix in="SourceAlpha" type="matrix" values="0 0 0 0 0 0 0 0 0 0 0 0 0 0 0 0 0 0 127 0" result="hardAlpha"/>
<feOffset/>
<feGaussianBlur stdDeviation="2"/>
<feComposite in2="hardAlpha" operator="out"/>
<feColorMatrix type="matrix" values="0 0 0 0 0 0 0 0 0 0 0 0 0 0 0 0 0 0 0.25 0"/>
<feBlend mode="normal" in2="BackgroundImageFix" result="effect1_dropShadow_223_1320"/>
<feBlend mode="normal" in="SourceGraphic" in2="effect1_dropShadow_223_1320" result="shape"/>
</filter>
</defs>
</svg>
