<svg width="28" height="28" viewBox="0 0 28 28" fill="none" xmlns="http://www.w3.org/2000/svg">
<path opacity="0.2" d="M27.924 14.0002C27.924 21.6915 21.6892 27.9266 13.998 27.9266C6.30668 27.9266 0.0717316 21.6915 0.0717316 14.0002C0.0717316 6.30904 6.30668 0.0740967 13.998 0.0740967C21.6891 0.0740967 27.924 6.30904 27.924 14.0002" fill="#FF7272"/>
<path d="M18.6667 7.92C19.4031 7.92 20 8.49305 20 9.19998C20 9.43312 19.9351 9.65172 19.8216 9.84H20C20.7364 9.84 21.3333 10.4131 21.3333 11.12C21.3333 11.8269 20.7364 12.4 20 12.4H20.6667C21.4031 12.4 22 12.9731 22 13.68C22 14.3869 21.4031 14.96 20.6667 14.96H7.33335C6.59697 14.96 6 14.3869 6 13.68C6 12.9731 6.59697 12.4 7.33335 12.4H8C7.26362 12.4 6.6667 11.8269 6.6667 11.12C6.6667 10.4131 7.26362 9.84 8 9.84H8.1784C8.06493 9.65172 8 9.43312 8 9.19998C8 8.49305 8.59697 7.92 9.33335 7.92C10 7.92 11.3333 6.63999 14 6C16.6667 7.92 18 7.92 18.6667 7.92ZM7.33335 15.6H20.6667L18.6667 22H9.33335L7.33335 15.6Z" fill="#FF7272"/>
</svg>
