<svg width="28" height="28" viewBox="0 0 28 28" fill="none" xmlns="http://www.w3.org/2000/svg">
<path opacity="0.2" d="M14 28C21.732 28 28 21.732 28 14C28 6.26801 21.732 0 14 0C6.26801 0 0 6.26801 0 14C0 21.732 6.26801 28 14 28Z" fill="#22844A"/>
<path d="M15.5 21.5V17.7209C15.5 17.2653 15.2929 16.8343 14.9371 16.5496L13.625 15.5M13.625 15.5L14.75 10.625M13.625 15.5L12.5 14.75M14.75 10.625L13.25 10.25M14.75 10.625L16.2819 13.0761C16.5009 13.4264 16.8547 13.6709 17.2597 13.752L18.5 14M12.5 14.75L13.25 10.25M12.5 14.75L12.0501 17.2246C11.89 18.1048 11.0001 18.65 10.1433 18.393L8 17.75M13.25 10.25L11.0792 11.3354C10.571 11.5895 10.25 12.1089 10.25 12.6771V14M15.875 7.625C15.875 8.03921 15.5392 8.375 15.125 8.375C14.7108 8.375 14.375 8.03921 14.375 7.625C14.375 7.21079 14.7108 6.875 15.125 6.875C15.5392 6.875 15.875 7.21079 15.875 7.625Z" stroke="#22844A" stroke-width="2" stroke-linecap="round" stroke-linejoin="round"/>
</svg>
